<svg width="40" height="40" viewBox="0 0 40 40" fill="none" xmlns="http://www.w3.org/2000/svg">
<path d="M35 10.035C35.005 9.79167 34.9884 7.59334 32.8334 5.47667C30.7117 3.39334 28.5717 3.33334 28.3334 3.33334H11.66C11.2617 3.33334 9.17171 3.43834 7.14671 5.50334C5.06004 7.63 5.00004 9.765 5.00004 10V15H3.33337V20H5.00004V30C5.00004 31.2233 5.67671 32.2883 6.66671 32.8683V35C6.66671 35.442 6.8423 35.866 7.15486 36.1785C7.46742 36.4911 7.89135 36.6667 8.33337 36.6667H10C10.4421 36.6667 10.866 36.4911 11.1786 36.1785C11.4911 35.866 11.6667 35.442 11.6667 35V33.3333H28.3334V35C28.3334 35.442 28.509 35.866 28.8215 36.1785C29.1341 36.4911 29.558 36.6667 30 36.6667H31.6667C32.1087 36.6667 32.5327 36.4911 32.8452 36.1785C33.1578 35.866 33.3334 35.442 33.3334 35V32.8717C33.839 32.5817 34.2593 32.1636 34.5519 31.6594C34.8445 31.1553 34.9991 30.5829 35 30V20H36.6667V15H35V10.035ZM15 6.66667H25V10H15V6.66667ZM10.8334 30C10.1701 29.9998 9.5341 29.7361 9.06526 29.2669C8.59642 28.7978 8.33315 28.1616 8.33337 27.4983C8.3336 26.8351 8.59729 26.1991 9.06644 25.7302C9.53559 25.2614 10.1718 24.9981 10.835 24.9983C11.4983 24.9986 12.1343 25.2622 12.6032 25.7314C13.072 26.2006 13.3353 26.8367 13.335 27.5C13.3348 28.1633 13.0711 28.7993 12.602 29.2681C12.1328 29.737 11.4966 30.0002 10.8334 30V30ZM18.3334 21.6667H8.33337V13.3333H18.3334V21.6667ZM29.1667 30C28.5034 29.9998 27.8674 29.7361 27.3986 29.2669C26.9298 28.7978 26.6665 28.1616 26.6667 27.4983C26.6669 26.8351 26.9306 26.1991 27.3998 25.7302C27.8689 25.2614 28.5051 24.9981 29.1684 24.9983C29.8316 24.9986 30.4676 25.2622 30.9365 25.7314C31.4053 26.2006 31.6686 26.8367 31.6684 27.5C31.6682 28.1633 31.4045 28.7993 30.9353 29.2681C30.4662 29.737 29.83 30.0002 29.1667 30V30ZM31.6667 21.6667H21.6667V13.3333H31.6667V21.6667Z" fill="#4F4F4F"/>
</svg>
