<svg width="163" height="48" viewBox="0 0 163 48" fill="none" xmlns="http://www.w3.org/2000/svg">
<path d="M49.036 16V6.06H53.432C53.8893 6.06 54.3093 6.15333 54.692 6.34C55.084 6.52667 55.42 6.77867 55.7 7.096C55.9893 7.41333 56.2087 7.768 56.358 8.16C56.5167 8.552 56.596 8.95333 56.596 9.364C56.596 9.784 56.5213 10.19 56.372 10.582C56.232 10.9647 56.0267 11.3007 55.756 11.59C55.4853 11.8793 55.168 12.1033 54.804 12.262L57.072 16H54.944L52.9 12.668H50.968V16H49.036ZM50.968 10.974H53.39C53.6327 10.974 53.8473 10.904 54.034 10.764C54.2207 10.6147 54.37 10.4187 54.482 10.176C54.594 9.93333 54.65 9.66267 54.65 9.364C54.65 9.04667 54.5847 8.77133 54.454 8.538C54.3233 8.29533 54.1553 8.104 53.95 7.964C53.754 7.824 53.5393 7.754 53.306 7.754H50.968V10.974ZM58.7962 16V8.664H60.6722V16H58.7962ZM58.7962 7.642V5.78H60.6722V7.642H58.7962ZM65.9345 16.042C65.4492 16.042 65.0012 15.9487 64.5905 15.762C64.1892 15.566 63.8392 15.2953 63.5405 14.95C63.2512 14.6047 63.0272 14.208 62.8685 13.76C62.7099 13.312 62.6305 12.836 62.6305 12.332C62.6305 11.8 62.7145 11.3053 62.8825 10.848C63.0505 10.3907 63.2839 9.98933 63.5825 9.644C63.8905 9.28933 64.2499 9.01867 64.6605 8.832C65.0805 8.636 65.5425 8.538 66.0465 8.538C66.6159 8.538 67.1152 8.66867 67.5445 8.93C67.9739 9.182 68.3285 9.52267 68.6085 9.952V8.664H70.2465V15.65C70.2465 16.378 70.0692 16.9987 69.7145 17.512C69.3692 18.0347 68.8885 18.4313 68.2725 18.702C67.6565 18.982 66.9565 19.122 66.1725 19.122C65.3792 19.122 64.7072 18.9867 64.1565 18.716C63.6059 18.4547 63.1345 18.0813 62.7425 17.596L63.7645 16.602C64.0445 16.9473 64.3945 17.218 64.8145 17.414C65.2439 17.61 65.6965 17.708 66.1725 17.708C66.5739 17.708 66.9379 17.6333 67.2645 17.484C67.6005 17.344 67.8665 17.12 68.0625 16.812C68.2679 16.5133 68.3705 16.126 68.3705 15.65V14.726C68.1279 15.146 67.7825 15.4727 67.3345 15.706C66.8959 15.93 66.4292 16.042 65.9345 16.042ZM66.5645 14.544C66.7699 14.544 66.9659 14.5113 67.1525 14.446C67.3392 14.3807 67.5119 14.292 67.6705 14.18C67.8292 14.068 67.9692 13.9373 68.0905 13.788C68.2119 13.6293 68.3052 13.4707 68.3705 13.312V11.562C68.2585 11.2727 68.0999 11.0207 67.8945 10.806C67.6985 10.5913 67.4745 10.428 67.2225 10.316C66.9799 10.1947 66.7232 10.134 66.4525 10.134C66.1632 10.134 65.9019 10.1947 65.6685 10.316C65.4352 10.4373 65.2345 10.61 65.0665 10.834C64.8985 11.0487 64.7679 11.2913 64.6745 11.562C64.5905 11.8233 64.5485 12.0987 64.5485 12.388C64.5485 12.6867 64.5999 12.9667 64.7025 13.228C64.8052 13.4893 64.9452 13.718 65.1225 13.914C65.3092 14.11 65.5239 14.264 65.7665 14.376C66.0185 14.488 66.2845 14.544 66.5645 14.544ZM79.4556 16H77.5796V11.884C77.5796 11.3147 77.4676 10.89 77.2436 10.61C77.0289 10.33 76.7303 10.19 76.3476 10.19C76.1236 10.19 75.8856 10.2553 75.6336 10.386C75.3816 10.5167 75.1529 10.6987 74.9476 10.932C74.7516 11.156 74.6069 11.4173 74.5136 11.716V16H72.6376V5.78H74.5136V10.022C74.7843 9.55533 75.1529 9.19133 75.6196 8.93C76.0863 8.66867 76.5949 8.538 77.1456 8.538C77.6216 8.538 78.0089 8.622 78.3076 8.79C78.6063 8.94867 78.8396 9.168 79.0076 9.448C79.1756 9.71867 79.2923 10.0267 79.3576 10.372C79.4229 10.708 79.4556 11.058 79.4556 11.422V16ZM86.1418 15.622C85.9831 15.6873 85.7918 15.762 85.5678 15.846C85.3438 15.93 85.1011 15.9953 84.8398 16.042C84.5878 16.098 84.3311 16.126 84.0698 16.126C83.7245 16.126 83.4071 16.0653 83.1178 15.944C82.8285 15.8227 82.5951 15.6313 82.4178 15.37C82.2498 15.0993 82.1658 14.7493 82.1658 14.32V10.106H81.1998V8.664H82.1658V6.284H84.0418V8.664H85.5818V10.106H84.0418V13.69C84.0511 13.942 84.1211 14.124 84.2518 14.236C84.3825 14.348 84.5458 14.404 84.7418 14.404C84.9378 14.404 85.1291 14.3713 85.3158 14.306C85.5025 14.2407 85.6518 14.1847 85.7638 14.138L86.1418 15.622ZM103.278 16H101.402V11.884C101.402 11.3053 101.299 10.8807 101.094 10.61C100.898 10.33 100.623 10.19 100.268 10.19C99.9041 10.19 99.5541 10.3347 99.2181 10.624C98.8915 10.904 98.6581 11.2727 98.5181 11.73V16H96.6421V11.884C96.6421 11.296 96.5395 10.8667 96.3341 10.596C96.1381 10.3253 95.8628 10.19 95.5081 10.19C95.1441 10.19 94.7941 10.33 94.4581 10.61C94.1315 10.89 93.8981 11.2587 93.7581 11.716V16H91.8821V8.664H93.5761V10.022C93.8561 9.546 94.2295 9.182 94.6961 8.93C95.1628 8.66867 95.6995 8.538 96.3061 8.538C96.9128 8.538 97.3841 8.68733 97.7201 8.986C98.0655 9.28467 98.2848 9.65333 98.3781 10.092C98.6768 9.588 99.0548 9.20533 99.5121 8.944C99.9788 8.67333 100.501 8.538 101.08 8.538C101.537 8.538 101.906 8.622 102.186 8.79C102.475 8.94867 102.699 9.168 102.858 9.448C103.017 9.71867 103.124 10.0267 103.18 10.372C103.245 10.7173 103.278 11.0673 103.278 11.422V16ZM105.642 17.428C105.81 17.4653 105.964 17.498 106.104 17.526C106.254 17.554 106.38 17.568 106.482 17.568C106.66 17.568 106.804 17.5213 106.916 17.428C107.038 17.344 107.154 17.1853 107.266 16.952C107.378 16.728 107.495 16.4107 107.616 16L104.718 8.664H106.664L108.638 14.082L110.374 8.664H112.166L109.086 17.456C108.974 17.7827 108.802 18.0767 108.568 18.338C108.344 18.6087 108.06 18.8187 107.714 18.968C107.378 19.1267 107 19.206 106.58 19.206C106.431 19.206 106.282 19.192 106.132 19.164C105.983 19.1453 105.82 19.108 105.642 19.052V17.428ZM49.628 42V26.38H56.25C56.9687 26.38 57.6287 26.5267 58.23 26.82C58.8313 27.1133 59.352 27.5093 59.792 28.008C60.2467 28.5067 60.5987 29.064 60.848 29.68C61.0973 30.296 61.222 30.9267 61.222 31.572C61.222 32.452 61.0167 33.288 60.606 34.08C60.1953 34.872 59.6307 35.5173 58.912 36.016C58.1933 36.5147 57.3427 36.764 56.36 36.764H52.664V42H49.628ZM52.664 34.102H56.184C56.5507 34.102 56.8807 33.9993 57.174 33.794C57.4673 33.5887 57.702 33.2953 57.878 32.914C58.054 32.518 58.142 32.0707 58.142 31.572C58.142 31.0293 58.0393 30.5673 57.834 30.186C57.6433 29.8047 57.3867 29.5187 57.064 29.328C56.756 29.1373 56.4187 29.042 56.052 29.042H52.664V34.102ZM63.335 42V26.38H70.243C70.9617 26.38 71.6217 26.5267 72.223 26.82C72.839 27.1133 73.367 27.5093 73.807 28.008C74.2617 28.5067 74.6064 29.064 74.841 29.68C75.0904 30.296 75.215 30.9267 75.215 31.572C75.215 32.232 75.0977 32.87 74.863 33.486C74.643 34.0873 74.3204 34.6153 73.895 35.07C73.4697 35.5247 72.971 35.8767 72.399 36.126L75.963 42H72.619L69.407 36.764H66.371V42H63.335ZM66.371 34.102H70.177C70.5584 34.102 70.8957 33.992 71.189 33.772C71.4824 33.5373 71.717 33.2293 71.893 32.848C72.069 32.4667 72.157 32.0413 72.157 31.572C72.157 31.0733 72.0544 30.6407 71.849 30.274C71.6437 29.8927 71.3797 29.592 71.057 29.372C70.749 29.152 70.4117 29.042 70.045 29.042H66.371V34.102ZM84.546 42.11C83.402 42.11 82.3606 41.89 81.422 41.45C80.498 41.01 79.6986 40.416 79.024 39.668C78.364 38.9053 77.8506 38.0547 77.484 37.116C77.1173 36.1627 76.934 35.1873 76.934 34.19C76.934 33.1487 77.1246 32.1587 77.506 31.22C77.902 30.2667 78.4373 29.4233 79.112 28.69C79.8013 27.942 80.608 27.3553 81.532 26.93C82.4706 26.49 83.4973 26.27 84.612 26.27C85.7413 26.27 86.768 26.4973 87.692 26.952C88.6306 27.4067 89.43 28.0153 90.09 28.778C90.75 29.5407 91.2633 30.3913 91.63 31.33C91.9966 32.2687 92.18 33.2367 92.18 34.234C92.18 35.2607 91.9893 36.2507 91.608 37.204C91.2266 38.1427 90.6913 38.986 90.002 39.734C89.3273 40.4673 88.5206 41.0467 87.582 41.472C86.658 41.8973 85.646 42.11 84.546 42.11ZM80.014 34.19C80.014 34.8647 80.1166 35.5173 80.322 36.148C80.5273 36.7787 80.8206 37.3433 81.202 37.842C81.598 38.326 82.0746 38.7147 82.632 39.008C83.204 39.2867 83.8493 39.426 84.568 39.426C85.3013 39.426 85.954 39.2793 86.526 38.986C87.098 38.678 87.5746 38.2747 87.956 37.776C88.3373 37.2627 88.6233 36.698 88.814 36.082C89.0193 35.4513 89.122 34.8207 89.122 34.19C89.122 33.5153 89.012 32.87 88.792 32.254C88.5866 31.6233 88.286 31.066 87.89 30.582C87.5086 30.0833 87.032 29.6947 86.46 29.416C85.9026 29.1227 85.272 28.976 84.568 28.976C83.82 28.976 83.16 29.13 82.588 29.438C82.0306 29.7313 81.5613 30.1273 81.18 30.626C80.7986 31.1247 80.5053 31.682 80.3 32.298C80.1093 32.914 80.014 33.5447 80.014 34.19ZM94.5089 42V26.38H101.131C101.85 26.38 102.51 26.5267 103.111 26.82C103.712 27.1133 104.233 27.5093 104.673 28.008C105.128 28.5067 105.48 29.064 105.729 29.68C105.978 30.296 106.103 30.9267 106.103 31.572C106.103 32.452 105.898 33.288 105.487 34.08C105.076 34.872 104.512 35.5173 103.793 36.016C103.074 36.5147 102.224 36.764 101.241 36.764H97.5449V42H94.5089ZM97.5449 34.102H101.065C101.432 34.102 101.762 33.9993 102.055 33.794C102.348 33.5887 102.583 33.2953 102.759 32.914C102.935 32.518 103.023 32.0707 103.023 31.572C103.023 31.0293 102.92 30.5673 102.715 30.186C102.524 29.8047 102.268 29.5187 101.945 29.328C101.637 29.1373 101.3 29.042 100.933 29.042H97.5449V34.102ZM119.062 39.338V42H108.216V26.38H118.864V29.042H111.252V32.804H117.83V35.268H111.252V39.338H119.062ZM121.429 42V26.38H128.337C129.055 26.38 129.715 26.5267 130.317 26.82C130.933 27.1133 131.461 27.5093 131.901 28.008C132.355 28.5067 132.7 29.064 132.935 29.68C133.184 30.296 133.309 30.9267 133.309 31.572C133.309 32.232 133.191 32.87 132.957 33.486C132.737 34.0873 132.414 34.6153 131.989 35.07C131.563 35.5247 131.065 35.8767 130.493 36.126L134.057 42H130.713L127.501 36.764H124.465V42H121.429ZM124.465 34.102H128.271C128.652 34.102 128.989 33.992 129.283 33.772C129.576 33.5373 129.811 33.2293 129.987 32.848C130.163 32.4667 130.251 32.0413 130.251 31.572C130.251 31.0733 130.148 30.6407 129.943 30.274C129.737 29.8927 129.473 29.592 129.151 29.372C128.843 29.152 128.505 29.042 128.139 29.042H124.465V34.102ZM147.57 29.042H142.576V42H139.562V29.042H134.568V26.38H147.57V29.042ZM151.269 26.38L155.119 33.728L159.035 26.38H162.313L156.637 36.544V42H153.623V36.5L147.969 26.38H151.269Z" fill="#F2F2F2"/>
<path d="M38.325 2L15.4875 27.1344L8.85938 22.0813H5.18438L15.4875 38.8156L42 2H38.325Z" fill="#00AEFF"/>
<path d="M35.3719 38.8156C35.3719 39.2094 35.0437 39.5375 34.65 39.5375H5.18438C4.79063 39.5375 4.4625 39.2094 4.4625 38.8156V9.35C4.4625 8.95625 4.79063 8.62813 5.18438 8.62813H25.3312L29.3344 4.23125H1.44375C0.65625 4.23125 0 4.8875 0 5.675V42.4906C0 43.3438 0.65625 44 1.44375 44H38.2594C39.0469 44 39.7031 43.3437 39.7031 42.5562V13.8781L35.3062 20.0469C35.3719 20.0469 35.3719 38.8156 35.3719 38.8156" fill="#F2F2F2"/>
</svg>
