<svg width="40" height="40" viewBox="0 0 40 40" fill="none" xmlns="http://www.w3.org/2000/svg">
<path d="M10.0467 5.89054C10.7752 7.40982 17.6369 17.8224 17.6369 17.8224L11.56 20.7365L7.10591 16.6437C5.50197 16.4163 5.08716 17.1965 5.08024 17.6151L7.75149 23.1857L5.2912 24.5497C3.69495 27.4557 5.87337 28.3615 7.16211 28.4512L9.18777 27.4799L11.1305 31.5312C12.1019 33.5569 13.2095 32.4029 13.6418 31.5727L14.4948 25.5579L20.0654 22.8866L24.6171 36.2756C26.593 38.3178 28.1413 35.8313 28.6685 34.3328L28.1497 19.6328L34.4879 16.5935C39.5167 11.0393 34.0042 10.3892 31.5738 10.5165L24.9904 13.6734L13.5916 4.19065C11.3646 2.14428 9.31816 4.37126 10.0467 5.89054Z" stroke="#004274" stroke-width="1.5"/>
</svg>
