<svg width="40" height="40" viewBox="0 0 40 40" fill="none" xmlns="http://www.w3.org/2000/svg">
<path d="M27.25 8.11765C27.25 9.0893 26.8792 10.4697 26.2417 12.0545C25.6126 13.6184 24.7551 15.3058 23.8513 16.8637C22.9471 18.4222 22.0073 19.8326 21.2204 20.8447C20.8251 21.3531 20.4818 21.7436 20.2112 21.9995C20.0974 22.1072 20.0083 22.1796 19.9438 22.2248C19.876 22.1934 19.75 22.1231 19.5592 21.9658C19.2581 21.7175 18.8955 21.3364 18.4898 20.8339C17.6815 19.8329 16.7675 18.4323 15.9061 16.8767C15.046 15.3235 14.2505 13.6379 13.6722 12.0742C13.0873 10.4928 12.75 9.10303 12.75 8.11765C12.75 4.03825 16.0062 0.75 20 0.75C23.9938 0.75 27.25 4.03825 27.25 8.11765ZM19.8642 22.2731C19.8642 22.2729 19.8666 22.2717 19.8713 22.2699C19.8665 22.2723 19.8641 22.2732 19.8642 22.2731Z" stroke="black" stroke-width="1.5"/>
<path fill-rule="evenodd" clip-rule="evenodd" d="M12.5314 14H7L5.17647 29.5L5 31H6.51035H33.4897H35L34.8235 29.5L33 14L27.4149 14C27.2667 14.4851 27.0945 14.9874 26.9029 15.5H31.6661L33.3132 29.5H6.68682L8.33387 15.5H13.0006C12.8243 14.9874 12.6666 14.4851 12.5314 14Z" fill="black"/>
<circle cx="20" cy="8" r="2" fill="black"/>
<line x1="5" y1="34.25" x2="35" y2="34.25" stroke="black" stroke-width="1.5" stroke-dasharray="3 3"/>
</svg>
