<svg width="40" height="40" viewBox="0 0 40 40" fill="none" xmlns="http://www.w3.org/2000/svg">
<path fill-rule="evenodd" clip-rule="evenodd" d="M34.95 6.21417L34.1275 6.08334L33.9116 5.27834L35.1525 4.94501L34.9508 6.21417H34.95ZM23.9333 17.7392L23.2241 18.1758L23.2225 18.1742L23.22 18.17L23.2116 18.1567L23.1833 18.1092C23.16 18.0692 23.125 18.0108 23.0833 17.9367C22.9666 17.7326 22.854 17.5262 22.7458 17.3175C22.4033 16.6615 22.1043 15.9836 21.8508 15.2883C21.5691 14.5017 21.3275 13.6008 21.29 12.7292C21.2533 11.8608 21.415 10.9183 22.0616 10.1792C22.6425 9.51584 23.7375 8.90501 24.8883 8.37667C26.0808 7.82751 27.4841 7.30084 28.8133 6.84501C30.4597 6.28274 32.1227 5.77028 33.8 5.30834L33.8833 5.28501L33.9125 5.27667L34.1291 6.08251L34.9516 6.21334L34.9466 6.24417L34.9325 6.33251C34.8493 6.84374 34.7621 7.35431 34.6708 7.86417C34.4488 9.11801 34.2066 10.3682 33.9441 11.6142C33.6475 13.015 33.3025 14.4833 32.9366 15.7125C32.7743 16.2747 32.5832 16.8282 32.3641 17.3708C32.1741 17.8292 31.9491 18.2742 31.6758 18.5875C31.0908 19.2558 30.18 19.465 29.3841 19.5183C28.5541 19.5742 27.6341 19.4733 26.8066 19.3267C26.0687 19.1937 25.3377 19.0241 24.6166 18.8183C24.3216 18.7352 24.0282 18.6463 23.7366 18.5517L23.6841 18.5333L23.67 18.5283L23.6658 18.5275H23.6641L23.9341 17.7383L23.9333 17.7392ZM23.9333 17.7392L23.2241 18.1758L23.3808 18.43L23.6641 18.5275L23.9333 17.7392ZM24.4933 17.045C25.3465 17.3113 26.215 17.5256 27.0941 17.6867C27.8641 17.8225 28.6341 17.8992 29.2725 17.8558C29.9466 17.8108 30.285 17.6458 30.4208 17.4908C30.5075 17.3908 30.6491 17.1542 30.8241 16.7325C31.0209 16.2436 31.1925 15.7448 31.3383 15.2383C31.6858 14.0717 32.02 12.6525 32.3133 11.27C32.5948 9.93245 32.8526 8.59002 33.0866 7.24334L32.8291 7.31834C31.905 7.59084 30.6566 7.97501 29.3541 8.42167C28.0491 8.86917 26.705 9.37501 25.5841 9.89084C24.4208 10.4258 23.6358 10.9117 23.3158 11.2775C23.06 11.5692 22.9283 12.0183 22.9558 12.6575C22.9825 13.2933 23.165 14.0158 23.42 14.725C23.7119 15.5271 24.071 16.3032 24.4933 17.045V17.045ZM8.55248 8.31167L8.33665 9.11667L7.51331 9.24751L7.31165 7.97917L8.55331 8.31251L8.55248 8.31167ZM16.6208 18.5892L17.33 19.025L17.3316 19.0233L17.3333 19.02L17.34 19.0092L17.3641 18.9692C17.4898 18.7551 17.6098 18.5378 17.7241 18.3175C17.9441 17.8942 18.225 17.3033 18.46 16.65C18.6916 16.0033 18.8933 15.2542 18.9241 14.5242C18.9558 13.7967 18.8208 12.985 18.2591 12.3433C17.7625 11.775 16.8433 11.2683 15.91 10.8383C14.9341 10.3892 13.7883 9.95917 12.7058 9.58834C11.3651 9.13043 10.0109 8.71302 8.64498 8.33667L8.57665 8.31834L8.55248 8.31167L8.33665 9.11667L7.51331 9.24751L7.51748 9.27251L7.52915 9.34501L7.57415 9.61667C7.799 10.9646 8.05211 12.3077 8.33331 13.645C8.57498 14.785 8.85665 15.9825 9.15498 16.9867C9.30498 17.4883 9.46165 17.9558 9.62581 18.35C9.78165 18.725 9.97248 19.1075 10.2125 19.3808C10.7291 19.9725 11.5233 20.1475 12.1808 20.1908C12.8741 20.2375 13.635 20.1533 14.3141 20.0342C15.1669 19.8811 16.0078 19.6683 16.8308 19.3975L16.8733 19.3833L16.8858 19.3792L16.89 19.3775L16.6208 18.5892V18.5892ZM16.6208 18.5892L17.33 19.025L17.1733 19.28L16.89 19.3775L16.6208 18.5892ZM16.06 17.8942C16.3856 17.3155 16.6635 16.7113 16.8908 16.0875C17.095 15.5183 17.2383 14.9475 17.2591 14.4525C17.2808 13.9542 17.1758 13.6358 17.005 13.44C16.7691 13.1717 16.1608 12.7883 15.2133 12.3525C14.31 11.9367 13.2233 11.5275 12.165 11.165C11.243 10.8503 10.3145 10.5552 9.37998 10.28L9.38331 10.3008C9.52498 11.1008 9.72665 12.1808 9.96415 13.3C10.2016 14.4217 10.4725 15.5692 10.7525 16.5117C10.8933 16.9833 11.0316 17.3908 11.165 17.7108C11.3066 18.05 11.4133 18.2225 11.4666 18.2842C11.535 18.3617 11.7558 18.4925 12.2925 18.5283C12.7933 18.5617 13.405 18.5017 14.025 18.3925C14.713 18.2685 15.3927 18.1018 16.06 17.8933V17.8942ZM14.235 25.8392C14.0233 25.8508 13.92 25.8808 13.8933 25.8925C13.5158 26.0633 12.3691 26.4633 11.3791 26.8008C10.8708 26.975 10.3833 27.1383 10.0233 27.2592L9.99998 27.2675V31.77C10.1466 31.7633 10.3041 31.7575 10.465 31.7517C11.155 31.7267 11.9758 31.7017 12.3316 31.7167C13.825 31.7758 14.9466 32.1292 15.985 32.4567L16.0075 32.4642C16.9808 32.7708 17.8825 33.0525 19.0633 33.1417C19.3966 33.1667 19.7208 33.1992 20.0233 33.2292H20.0275C21.1891 33.3458 21.9541 33.4042 22.5466 33.1892C23.0075 33.0217 24.695 32.2392 26.3966 31.3833C27.2383 30.96 28.0633 30.5292 28.7191 30.16C29.0483 29.975 29.3275 29.81 29.5416 29.6717C29.6483 29.6025 29.7333 29.5442 29.7983 29.4967C29.8239 29.4779 29.8489 29.4585 29.8733 29.4383L29.8966 29.4183C29.98 29.3342 30.0683 29.0408 29.925 28.765C29.8575 28.636 29.7461 28.5355 29.6108 28.4817C29.4441 28.4092 29.1608 28.3533 28.7108 28.4275C27.6958 28.5942 26.4833 29.0825 25.2725 29.575L25.2558 29.5825C24.6608 29.8242 24.0641 30.0667 23.535 30.2433C23.0266 30.4125 22.4625 30.5642 21.9708 30.535C21.2958 30.4933 20.1116 30.3183 19.135 30.16C18.5737 30.0693 18.0131 29.9742 17.4533 29.875L17.345 29.8558L17.3066 29.8483L17.465 28.195L21.2733 28.2408H21.2816C21.3261 28.236 21.3702 28.2277 21.4133 28.2158C21.545 28.1825 21.7708 28.1 22.055 27.8992C22.1425 27.8367 22.2575 27.7217 22.365 27.5675C22.4066 27.5071 22.4444 27.4442 22.4783 27.3792C22.014 27.3496 21.5526 27.2844 21.0983 27.1842C20.8509 27.1303 20.6055 27.0678 20.3625 26.9967L20.3341 26.9883L15.67 25.95L15.6258 25.9425C15.3775 25.9013 15.1276 25.8707 14.8766 25.8508C14.6632 25.8331 14.4489 25.8292 14.235 25.8392V25.8392ZM15.8333 25.1333L15.9841 24.3142L15.9991 24.3167L20.7641 25.3767L20.7991 25.3875L20.8058 25.39L20.8375 25.3992L20.9691 25.4367C21.085 25.4683 21.2516 25.5117 21.45 25.555C21.855 25.6425 22.3616 25.7233 22.83 25.7233C23.2991 25.7233 23.8091 25.8983 24.0841 26.3967C24.3191 26.8233 24.2608 27.285 24.1783 27.59C24.1017 27.8597 23.9876 28.1172 23.8391 28.355C24.0925 28.255 24.3616 28.1467 24.6441 28.0317L24.6958 28.01C25.8441 27.5433 27.2208 26.9833 28.44 26.7825C29.8566 26.5508 30.9191 27.0592 31.405 27.9992C31.8333 28.8283 31.7383 29.9217 31.0841 30.5867C30.92 30.7533 30.6758 30.9225 30.4425 31.0733C30.1453 31.2614 29.843 31.4412 29.5358 31.6125C28.8483 31.9992 27.9975 32.4433 27.1441 32.8725C25.4591 33.72 23.6841 34.5492 23.1141 34.7558C22.1258 35.1142 20.9825 35 19.9666 34.8983L19.8608 34.8875C19.5534 34.856 19.2456 34.8282 18.9375 34.8042C17.5541 34.6992 16.4941 34.365 15.5258 34.06L15.505 34.0533C14.4633 33.725 13.525 33.4325 12.265 33.3817C11.9883 33.3708 11.2433 33.3908 10.525 33.4175C10.1205 33.4322 9.71602 33.4486 9.31165 33.4667L9.20415 33.4717L8.33248 33.5117V26.065L9.06331 25.8225C9.65633 25.6254 10.2486 25.426 10.84 25.2242C11.8766 24.87 12.9216 24.5025 13.2066 24.3742C13.5125 24.2358 13.86 24.1908 14.1383 24.1742C14.4341 24.1575 14.7383 24.17 15.0041 24.19C15.3241 24.2151 15.6428 24.2548 15.9591 24.3092L15.9766 24.3125H15.9816L15.9833 24.3133H15.985L15.8333 25.1333Z" fill="black"/>
<path fill-rule="evenodd" clip-rule="evenodd" d="M29.2917 11.0333C29.3748 11.1045 29.4432 11.1913 29.4928 11.2888C29.5424 11.3864 29.5724 11.4927 29.5809 11.6019C29.5894 11.711 29.5763 11.8207 29.5424 11.9247C29.5085 12.0288 29.4545 12.1252 29.3833 12.2083C26.8992 15.1067 23.8067 19.3542 22.4417 22.8067C22.4014 22.9084 22.3415 23.0013 22.2653 23.0799C22.1892 23.1585 22.0983 23.2214 21.9978 23.2649C21.8974 23.3083 21.7894 23.3316 21.6799 23.3334C21.5705 23.3351 21.4618 23.3153 21.36 23.275C21.2582 23.2347 21.1654 23.1748 21.0868 23.0987C21.0081 23.0225 20.9453 22.9316 20.9018 22.8312C20.8583 22.7307 20.835 22.6227 20.8333 22.5133C20.8316 22.4038 20.8514 22.2951 20.8917 22.1933C22.3608 18.4775 25.6008 14.06 28.1167 11.1242C28.2606 10.9564 28.4652 10.8527 28.6855 10.8358C28.9059 10.819 29.1239 10.8903 29.2917 11.0342V11.0333ZM12.8167 13.7067C12.7307 13.7745 12.659 13.8586 12.6056 13.9542C12.5522 14.0497 12.5181 14.1549 12.5053 14.2636C12.4926 14.3723 12.5013 14.4825 12.5312 14.5878C12.561 14.6932 12.6113 14.7916 12.6792 14.8775C14.5475 17.2483 16.5875 20.2825 17.5558 22.7992C17.639 23 17.7973 23.1605 17.9971 23.2462C18.1968 23.332 18.4222 23.3363 18.6251 23.2582C18.828 23.1802 18.9923 23.0259 19.0831 22.8284C19.1738 22.6308 19.1838 22.4056 19.1108 22.2008C18.0517 19.4475 15.8875 16.255 13.9875 13.8458C13.8508 13.6723 13.6507 13.5601 13.4313 13.534C13.2119 13.5079 12.9911 13.57 12.8175 13.7067H12.8167Z" fill="black"/>
<path d="M5 24.1667H10V35H5V24.1667Z" fill="black"/>
</svg>
