<svg width="40" height="40" viewBox="0 0 40 40" fill="none" xmlns="http://www.w3.org/2000/svg">
<path d="M33.3618 27.2993L21.4531 16.0234L20.6548 15.2672C20.473 15.0961 20.227 15 19.9706 15C19.7143 15 19.4683 15.0961 19.2864 15.2672L6.57954 27.2993C6.39317 27.4752 6.24589 27.6846 6.14637 27.9153C6.04686 28.146 5.99713 28.3932 6.00013 28.6424C6.01246 29.6701 6.91547 30.4905 8.00032 30.4905H9.31015V40H30.6311V30.4905H31.9687C32.4957 30.4905 32.9919 30.2949 33.3648 29.9416C33.5485 29.7682 33.6939 29.5621 33.7929 29.335C33.8918 29.108 33.9422 28.8646 33.9412 28.619C33.9412 28.1227 33.7347 27.6526 33.3618 27.2993V27.2993ZM21.6965 37.8978H18.2447V31.9416H21.6965V37.8978ZM28.4121 28.3884V37.8978H23.669V31.2409C23.669 30.5956 23.1173 30.073 22.4362 30.073H17.5051C16.824 30.073 16.2723 30.5956 16.2723 31.2409V37.8978H11.5292V28.3884H8.57048L19.9737 17.5942L20.6857 18.2687L31.3739 28.3884H28.4121Z" fill="black"/>
<path d="M13.318 13.9037L7.52158 8.49125L7.13305 8.12827C7.04452 8.04611 6.92481 8 6.80003 8C6.67525 8 6.55553 8.04611 6.467 8.12827L0.282081 13.9037C0.191372 13.9881 0.119683 14.0886 0.0712452 14.1993C0.0228078 14.3101 -0.00139604 14.4287 6.21788e-05 14.5483C0.00606259 15.0416 0.445593 15.4355 0.973629 15.4355H1.61117V20H11.9889V15.4355H12.6399C12.8964 15.4355 13.138 15.3416 13.3195 15.172C13.4088 15.0888 13.4797 14.9898 13.5278 14.8808C13.576 14.7718 13.6005 14.655 13.6 14.5371C13.6 14.2989 13.4995 14.0732 13.318 13.9037V13.9037ZM7.64009 18.991H5.95997V16.132H7.64009V18.991ZM10.9088 14.4264V18.991H8.60015V15.7956C8.60015 15.4859 8.33163 15.2351 8.00011 15.2351H5.59995C5.26842 15.2351 4.9999 15.4859 4.9999 15.7956V18.991H2.69125V14.4264H1.25115L6.80153 9.24523L7.14805 9.56897L12.3504 14.4264H10.9088Z" fill="black"/>
<path d="M39.318 13.9037L33.5216 8.49125L33.1331 8.12827C33.0445 8.04611 32.9248 8 32.8 8C32.6752 8 32.5555 8.04611 32.467 8.12827L26.2821 13.9037C26.1914 13.9881 26.1197 14.0886 26.0712 14.1993C26.0228 14.3101 25.9986 14.4287 26.0001 14.5483C26.0061 15.0416 26.4456 15.4355 26.9736 15.4355H27.6112V20H37.9889V15.4355H38.6399C38.8964 15.4355 39.138 15.3416 39.3195 15.172C39.4088 15.0888 39.4797 14.9898 39.5278 14.8808C39.576 14.7718 39.6005 14.655 39.6 14.5371C39.6 14.2989 39.4995 14.0732 39.318 13.9037V13.9037ZM33.6401 18.991H31.96V16.132H33.6401V18.991ZM36.9088 14.4264V18.991H34.6002V15.7956C34.6002 15.4859 34.3316 15.2351 34.0001 15.2351H31.5999C31.2684 15.2351 30.9999 15.4859 30.9999 15.7956V18.991H28.6912V14.4264H27.2511L32.8015 9.24523L33.1481 9.56897L38.3504 14.4264H36.9088Z" fill="black"/>
</svg>
