<svg width="40" height="40" viewBox="0 0 40 40" fill="none" xmlns="http://www.w3.org/2000/svg">
<path d="M13.5 13C13.8978 13 14.2794 12.842 14.5607 12.5607C14.842 12.2794 15 11.8978 15 11.5C15 11.1022 14.842 10.7206 14.5607 10.4393C14.2794 10.158 13.8978 10 13.5 10C13.1022 10 12.7206 10.158 12.4393 10.4393C12.158 10.7206 12 11.1022 12 11.5C12 11.8978 12.158 12.2794 12.4393 12.5607C12.7206 12.842 13.1022 13 13.5 13ZM15 17.5C15 17.8978 14.842 18.2794 14.5607 18.5607C14.2794 18.842 13.8978 19 13.5 19C13.1022 19 12.7206 18.842 12.4393 18.5607C12.158 18.2794 12 17.8978 12 17.5C12 17.1022 12.158 16.7206 12.4393 16.4393C12.7206 16.158 13.1022 16 13.5 16C13.8978 16 14.2794 16.158 14.5607 16.4393C14.842 16.7206 15 17.1022 15 17.5ZM13.5 25C13.697 25 13.892 24.9612 14.074 24.8858C14.256 24.8104 14.4214 24.6999 14.5607 24.5607C14.6999 24.4214 14.8104 24.256 14.8858 24.074C14.9612 23.892 15 23.697 15 23.5C15 23.303 14.9612 23.108 14.8858 22.926C14.8104 22.744 14.6999 22.5786 14.5607 22.4393C14.4214 22.3001 14.256 22.1896 14.074 22.1142C13.892 22.0388 13.697 22 13.5 22C13.1022 22 12.7206 22.158 12.4393 22.4393C12.158 22.7206 12 23.1022 12 23.5C12 23.8978 12.158 24.2794 12.4393 24.5607C12.7206 24.842 13.1022 25 13.5 25V25ZM21 11.5C21 11.8978 20.842 12.2794 20.5607 12.5607C20.2794 12.842 19.8978 13 19.5 13C19.1022 13 18.7206 12.842 18.4393 12.5607C18.158 12.2794 18 11.8978 18 11.5C18 11.1022 18.158 10.7206 18.4393 10.4393C18.7206 10.158 19.1022 10 19.5 10C19.8978 10 20.2794 10.158 20.5607 10.4393C20.842 10.7206 21 11.1022 21 11.5ZM19.5 19C19.8978 19 20.2794 18.842 20.5607 18.5607C20.842 18.2794 21 17.8978 21 17.5C21 17.1022 20.842 16.7206 20.5607 16.4393C20.2794 16.158 19.8978 16 19.5 16C19.1022 16 18.7206 16.158 18.4393 16.4393C18.158 16.7206 18 17.1022 18 17.5C18 17.8978 18.158 18.2794 18.4393 18.5607C18.7206 18.842 19.1022 19 19.5 19ZM21 23.5C21 23.8978 20.842 24.2794 20.5607 24.5607C20.2794 24.842 19.8978 25 19.5 25C19.1022 25 18.7206 24.842 18.4393 24.5607C18.158 24.2794 18 23.8978 18 23.5C18 23.1022 18.158 22.7206 18.4393 22.4393C18.7206 22.158 19.1022 22 19.5 22C19.8978 22 20.2794 22.158 20.5607 22.4393C20.842 22.7206 21 23.1022 21 23.5ZM25.5 25C25.697 25 25.892 24.9612 26.074 24.8858C26.256 24.8104 26.4214 24.6999 26.5607 24.5607C26.6999 24.4214 26.8104 24.256 26.8858 24.074C26.9612 23.892 27 23.697 27 23.5C27 23.303 26.9612 23.108 26.8858 22.926C26.8104 22.744 26.6999 22.5786 26.5607 22.4393C26.4214 22.3001 26.256 22.1896 26.074 22.1142C25.892 22.0388 25.697 22 25.5 22C25.1022 22 24.7206 22.158 24.4393 22.4393C24.158 22.7206 24 23.1022 24 23.5C24 23.8978 24.158 24.2794 24.4393 24.5607C24.7206 24.842 25.1022 25 25.5 25V25ZM9 36C8.73478 36 8.48043 35.8946 8.29289 35.7071C8.10536 35.5196 8 35.2652 8 35V7C8 6.20435 8.31607 5.44129 8.87868 4.87868C9.44129 4.31607 10.2044 4 11 4H23C23.7956 4 24.5587 4.31607 25.1213 4.87868C25.6839 5.44129 26 6.20435 26 7V16H29C29.7956 16 30.5587 16.3161 31.1213 16.8787C31.6839 17.4413 32 18.2044 32 19V35C32 35.2652 31.8946 35.5196 31.7071 35.7071C31.5196 35.8946 31.2652 36 31 36H9ZM10 7V34H14V29C14 28.7348 14.1054 28.4804 14.2929 28.2929C14.4804 28.1054 14.7348 28 15 28H25C25.2652 28 25.5196 28.1054 25.7071 28.2929C25.8946 28.4804 26 28.7348 26 29V34H30V19C30 18.7348 29.8946 18.4804 29.7071 18.2929C29.5196 18.1054 29.2652 18 29 18H25C24.7348 18 24.4804 17.8946 24.2929 17.7071C24.1054 17.5196 24 17.2652 24 17V7C24 6.73478 23.8946 6.48043 23.7071 6.29289C23.5196 6.10536 23.2652 6 23 6H11C10.7348 6 10.4804 6.10536 10.2929 6.29289C10.1054 6.48043 10 6.73478 10 7ZM24 30H21V34H24V30ZM19 30H16V34H19V30Z" fill="black"/>
</svg>
