<svg width="96" height="71" viewBox="0 0 96 71" fill="none" xmlns="http://www.w3.org/2000/svg">
<path d="M87.9633 66.288L76.0527 50.8656M85.9529 33.5482C85.0774 40.4106 81.5116 46.6442 76.0401 50.8776C70.5685 55.111 63.6394 56.9974 56.7769 56.1219C49.9145 55.2464 43.6809 51.6807 39.4475 46.2091C35.2141 40.7376 33.3277 33.8084 34.2032 26.946C35.0787 20.0835 38.6444 13.8499 44.116 9.61655C49.5876 5.38315 56.5167 3.49671 63.3792 4.37222C70.2416 5.24773 76.4752 8.81348 80.7086 14.285C84.942 19.7566 86.8284 26.6858 85.9529 33.5482Z" stroke="#4F4F4F" stroke-width="8" stroke-linecap="round"/>
<rect y="16" width="24" height="10" rx="5" fill="#4F4F4F"/>
<rect y="38" width="24" height="10" rx="5" fill="#4F4F4F"/>
<rect y="60" width="45" height="10" rx="5" fill="#4F4F4F"/>
</svg>
