<svg width="40" height="40" viewBox="0 0 40 40" fill="none" xmlns="http://www.w3.org/2000/svg">
<path d="M37.5 32.8125H35.9375V16.25C35.9375 15.6698 35.707 15.1134 35.2968 14.7032C34.8866 14.293 34.3302 14.0625 33.75 14.0625H23.4375V6.25C23.4375 5.66984 23.207 5.11344 22.7968 4.7032C22.3866 4.29297 21.8302 4.0625 21.25 4.0625H6.25C5.66984 4.0625 5.11344 4.29297 4.7032 4.7032C4.29297 5.11344 4.0625 5.66984 4.0625 6.25V32.8125H2.5C2.25136 32.8125 2.0129 32.9113 1.83709 33.0871C1.66127 33.2629 1.5625 33.5014 1.5625 33.75C1.5625 33.9986 1.66127 34.2371 1.83709 34.4129C2.0129 34.5887 2.25136 34.6875 2.5 34.6875H37.5C37.7486 34.6875 37.9871 34.5887 38.1629 34.4129C38.3387 34.2371 38.4375 33.9986 38.4375 33.75C38.4375 33.5014 38.3387 33.2629 38.1629 33.0871C37.9871 32.9113 37.7486 32.8125 37.5 32.8125ZM33.75 15.9375C33.8329 15.9375 33.9124 15.9704 33.971 16.029C34.0296 16.0876 34.0625 16.1671 34.0625 16.25V32.8125H23.4375V15.9375H33.75ZM5.9375 6.25C5.9375 6.16712 5.97042 6.08763 6.02903 6.02903C6.08763 5.97042 6.16712 5.9375 6.25 5.9375H21.25C21.3329 5.9375 21.4124 5.97042 21.471 6.02903C21.5296 6.08763 21.5625 6.16712 21.5625 6.25V32.8125H5.9375V6.25ZM9.0625 11.25C9.0625 11.0014 9.16127 10.7629 9.33709 10.5871C9.5129 10.4113 9.75136 10.3125 10 10.3125H15C15.2486 10.3125 15.4871 10.4113 15.6629 10.5871C15.8387 10.7629 15.9375 11.0014 15.9375 11.25C15.9375 11.4986 15.8387 11.7371 15.6629 11.9129C15.4871 12.0887 15.2486 12.1875 15 12.1875H10C9.75136 12.1875 9.5129 12.0887 9.33709 11.9129C9.16127 11.7371 9.0625 11.4986 9.0625 11.25ZM18.4375 21.25C18.4375 21.4986 18.3387 21.7371 18.1629 21.9129C17.9871 22.0887 17.7486 22.1875 17.5 22.1875H12.5C12.2514 22.1875 12.0129 22.0887 11.8371 21.9129C11.6613 21.7371 11.5625 21.4986 11.5625 21.25C11.5625 21.0014 11.6613 20.7629 11.8371 20.5871C12.0129 20.4113 12.2514 20.3125 12.5 20.3125H17.5C17.7486 20.3125 17.9871 20.4113 18.1629 20.5871C18.3387 20.7629 18.4375 21.0014 18.4375 21.25ZM15.9375 27.5C15.9375 27.7486 15.8387 27.9871 15.6629 28.1629C15.4871 28.3387 15.2486 28.4375 15 28.4375H10C9.75136 28.4375 9.5129 28.3387 9.33709 28.1629C9.16127 27.9871 9.0625 27.7486 9.0625 27.5C9.0625 27.2514 9.16127 27.0129 9.33709 26.8371C9.5129 26.6613 9.75136 26.5625 10 26.5625H15C15.2486 26.5625 15.4871 26.6613 15.6629 26.8371C15.8387 27.0129 15.9375 27.2514 15.9375 27.5ZM30.9375 27.5C30.9375 27.7486 30.8387 27.9871 30.6629 28.1629C30.4871 28.3387 30.2486 28.4375 30 28.4375H27.5C27.2514 28.4375 27.0129 28.3387 26.8371 28.1629C26.6613 27.9871 26.5625 27.7486 26.5625 27.5C26.5625 27.2514 26.6613 27.0129 26.8371 26.8371C27.0129 26.6613 27.2514 26.5625 27.5 26.5625H30C30.2486 26.5625 30.4871 26.6613 30.6629 26.8371C30.8387 27.0129 30.9375 27.2514 30.9375 27.5ZM26.5625 21.25C26.5625 21.0014 26.6613 20.7629 26.8371 20.5871C27.0129 20.4113 27.2514 20.3125 27.5 20.3125H30C30.2486 20.3125 30.4871 20.4113 30.6629 20.5871C30.8387 20.7629 30.9375 21.0014 30.9375 21.25C30.9375 21.4986 30.8387 21.7371 30.6629 21.9129C30.4871 22.0887 30.2486 22.1875 30 22.1875H27.5C27.2514 22.1875 27.0129 22.0887 26.8371 21.9129C26.6613 21.7371 26.5625 21.4986 26.5625 21.25Z" fill="#004274"/>
</svg>
