<svg width="40" height="40" viewBox="0 0 40 40" fill="none" xmlns="http://www.w3.org/2000/svg">
<path d="M20 3.33334C13.3333 3.33334 6.66663 4.16667 6.66663 10V25.8333C6.66663 29.05 9.28329 31.6667 12.5 31.6667L9.99996 34.1667V35H13.3333L16.6666 31.6667H23.3333L26.6666 35H30V34.1667L27.5 31.6667C30.7166 31.6667 33.3333 29.05 33.3333 25.8333V10C33.3333 4.16667 26.6666 3.33334 20 3.33334ZM12.5 28.3333C11.1166 28.3333 9.99996 27.2167 9.99996 25.8333C9.99996 24.45 11.1166 23.3333 12.5 23.3333C13.8833 23.3333 15 24.45 15 25.8333C15 27.2167 13.8833 28.3333 12.5 28.3333ZM18.3333 16.6667H9.99996V10H18.3333V16.6667ZM27.5 28.3333C26.1166 28.3333 25 27.2167 25 25.8333C25 24.45 26.1166 23.3333 27.5 23.3333C28.8833 23.3333 30 24.45 30 25.8333C30 27.2167 28.8833 28.3333 27.5 28.3333ZM30 16.6667H21.6666V10H30V16.6667Z" fill="#4F4F4F"/>
</svg>
