<svg width="40" height="40" viewBox="0 0 40 40" fill="none" xmlns="http://www.w3.org/2000/svg">
<path d="M26.6667 20.3667V15L18.3333 10.8333V8.33333H21.6667V5H18.3333V1.66666H15V5H11.6667V8.33333H15V10.8333L6.66667 15V20.3667L0 23.3333V36.6667H13.3333V31.6667C13.3333 29.8333 14.8333 28.3333 16.6667 28.3333C18.5 28.3333 20 29.8333 20 31.6667V36.6667H33.3333V23.3333L26.6667 20.3667ZM16.6667 22.5C15.2833 22.5 14.1667 21.3833 14.1667 20C14.1667 18.6167 15.2833 17.5 16.6667 17.5C18.05 17.5 19.1667 18.6167 19.1667 20C19.1667 21.3833 18.05 22.5 16.6667 22.5Z" fill="#4F4F4F"/>
</svg>
