<svg width="40" height="40" viewBox="0 0 40 40" fill="none" xmlns="http://www.w3.org/2000/svg">
<path d="M29.375 4.0625H10.625C9.38307 4.06662 8.19317 4.5618 7.31499 5.43999C6.4368 6.31817 5.94162 7.50807 5.9375 8.75V28.75C5.94162 29.9919 6.4368 31.1818 7.31499 32.06C8.19317 32.9382 9.38307 33.4334 10.625 33.4375H13.125L10.5 36.9375C10.4261 37.036 10.3724 37.1481 10.3418 37.2673C10.3113 37.3866 10.3045 37.5107 10.3219 37.6326C10.3393 37.7545 10.3806 37.8717 10.4433 37.9777C10.506 38.0836 10.589 38.1761 10.6875 38.25C10.786 38.3239 10.8981 38.3776 11.0173 38.4082C11.1366 38.4387 11.2607 38.4455 11.3826 38.4281C11.5045 38.4107 11.6217 38.3694 11.7277 38.3067C11.8336 38.244 11.9261 38.161 12 38.0625L15.4688 33.4375H24.5312L28 38.0625C28.1492 38.2614 28.3713 38.3929 28.6174 38.4281C28.8636 38.4632 29.1136 38.3992 29.3125 38.25C29.5114 38.1008 29.6429 37.8787 29.6781 37.6326C29.7132 37.3864 29.6492 37.1364 29.5 36.9375L26.875 33.4375H29.375C30.6169 33.4334 31.8068 32.9382 32.685 32.06C33.5632 31.1818 34.0584 29.9919 34.0625 28.75V8.75C34.0584 7.50807 33.5632 6.31817 32.685 5.43999C31.8068 4.5618 30.6169 4.06662 29.375 4.0625ZM10.625 5.9375H29.375C30.1197 5.9416 30.8326 6.23924 31.3592 6.7658C31.8858 7.29236 32.1834 8.00534 32.1875 8.75V19.0625H7.8125V8.75C7.8166 8.00534 8.11424 7.29236 8.6408 6.7658C9.16736 6.23924 9.88034 5.9416 10.625 5.9375ZM29.375 31.5625H10.625C9.88034 31.5584 9.16736 31.2608 8.6408 30.7342C8.11424 30.2076 7.8166 29.4947 7.8125 28.75V20.9375H32.1875V28.75C32.1834 29.4947 31.8858 30.2076 31.3592 30.7342C30.8326 31.2608 30.1197 31.5584 29.375 31.5625ZM14.6875 26.875C14.6875 27.184 14.5959 27.4861 14.4242 27.7431C14.2525 28 14.0085 28.2003 13.7229 28.3186C13.4374 28.4368 13.1233 28.4678 12.8202 28.4075C12.5171 28.3472 12.2387 28.1984 12.0201 27.9799C11.8016 27.7613 11.6528 27.4829 11.5925 27.1798C11.5322 26.8767 11.5632 26.5626 11.6814 26.2771C11.7997 25.9915 12 25.7475 12.2569 25.5758C12.5139 25.4041 12.816 25.3125 13.125 25.3125C13.5394 25.3125 13.9368 25.4771 14.2299 25.7701C14.5229 26.0632 14.6875 26.4606 14.6875 26.875ZM28.4375 26.875C28.4375 27.184 28.3459 27.4861 28.1742 27.7431C28.0025 28 27.7585 28.2003 27.4729 28.3186C27.1874 28.4368 26.8733 28.4678 26.5702 28.4075C26.2671 28.3472 25.9887 28.1984 25.7701 27.9799C25.5516 27.7613 25.4028 27.4829 25.3425 27.1798C25.2822 26.8767 25.3132 26.5626 25.4314 26.2771C25.5497 25.9915 25.75 25.7475 26.0069 25.5758C26.2639 25.4041 26.566 25.3125 26.875 25.3125C27.2894 25.3125 27.6868 25.4771 27.9799 25.7701C28.2729 26.0632 28.4375 26.4606 28.4375 26.875Z" fill="#004274"/>
</svg>
