<svg width="40" height="40" viewBox="0 0 40 40" fill="none" xmlns="http://www.w3.org/2000/svg">
<path d="M4 8C4 6.93913 4.42143 5.92172 5.17157 5.17157C5.92172 4.42143 6.93913 4 8 4H20C21.0609 4 22.0783 4.42143 22.8284 5.17157C23.5786 5.92172 24 6.93913 24 8V10H32C33.0609 10 34.0783 10.4214 34.8284 11.1716C35.5786 11.9217 36 12.9391 36 14V34C36 34.5304 35.7893 35.0391 35.4142 35.4142C35.0391 35.7893 34.5304 36 34 36H6C5.46957 36 4.96086 35.7893 4.58579 35.4142C4.21071 35.0391 4 34.5304 4 34V8ZM24 34H28V30H24V34ZM30 34H34V14C34 13.4696 33.7893 12.9609 33.4142 12.5858C33.0391 12.2107 32.5304 12 32 12H20C19.4696 12 18.9609 12.2107 18.5858 12.5858C18.2107 12.9609 18 13.4696 18 14V34H22V30C22 29.4696 22.2107 28.9609 22.5858 28.5858C22.9609 28.2107 23.4696 28 24 28H28C28.5304 28 29.0391 28.2107 29.4142 28.5858C29.7893 28.9609 30 29.4696 30 30V34ZM22 8C22 7.46957 21.7893 6.96086 21.4142 6.58579C21.0391 6.21071 20.5304 6 20 6H8C7.46957 6 6.96086 6.21071 6.58579 6.58579C6.21071 6.96086 6 7.46957 6 8V34H16V14C16 12.9391 16.4214 11.9217 17.1716 11.1716C17.9217 10.4214 18.9391 10 20 10H22V8ZM24 17.5C24 17.8978 23.842 18.2794 23.5607 18.5607C23.2794 18.842 22.8978 19 22.5 19C22.1022 19 21.7206 18.842 21.4393 18.5607C21.158 18.2794 21 17.8978 21 17.5C21 17.1022 21.158 16.7206 21.4393 16.4393C21.7206 16.158 22.1022 16 22.5 16C22.8978 16 23.2794 16.158 23.5607 16.4393C23.842 16.7206 24 17.1022 24 17.5ZM10.5 19C10.8978 19 11.2794 18.842 11.5607 18.5607C11.842 18.2794 12 17.8978 12 17.5C12 17.1022 11.842 16.7206 11.5607 16.4393C11.2794 16.158 10.8978 16 10.5 16C10.1022 16 9.72064 16.158 9.43934 16.4393C9.15804 16.7206 9 17.1022 9 17.5C9 17.8978 9.15804 18.2794 9.43934 18.5607C9.72064 18.842 10.1022 19 10.5 19ZM12 11.5C12 11.8978 11.842 12.2794 11.5607 12.5607C11.2794 12.842 10.8978 13 10.5 13C10.1022 13 9.72064 12.842 9.43934 12.5607C9.15804 12.2794 9 11.8978 9 11.5C9 11.1022 9.15804 10.7206 9.43934 10.4393C9.72064 10.158 10.1022 10 10.5 10C10.8978 10 11.2794 10.158 11.5607 10.4393C11.842 10.7206 12 11.1022 12 11.5ZM22.5 25C22.697 25 22.892 24.9612 23.074 24.8858C23.256 24.8104 23.4214 24.6999 23.5607 24.5607C23.6999 24.4214 23.8104 24.256 23.8858 24.074C23.9612 23.892 24 23.697 24 23.5C24 23.303 23.9612 23.108 23.8858 22.926C23.8104 22.744 23.6999 22.5786 23.5607 22.4393C23.4214 22.3001 23.256 22.1896 23.074 22.1142C22.892 22.0388 22.697 22 22.5 22C22.1022 22 21.7206 22.158 21.4393 22.4393C21.158 22.7206 21 23.1022 21 23.5C21 23.8978 21.158 24.2794 21.4393 24.5607C21.7206 24.842 22.1022 25 22.5 25V25ZM12 29.5C12 29.8978 11.842 30.2794 11.5607 30.5607C11.2794 30.842 10.8978 31 10.5 31C10.1022 31 9.72064 30.842 9.43934 30.5607C9.15804 30.2794 9 29.8978 9 29.5C9 29.1022 9.15804 28.7206 9.43934 28.4393C9.72064 28.158 10.1022 28 10.5 28C10.8978 28 11.2794 28.158 11.5607 28.4393C11.842 28.7206 12 29.1022 12 29.5V29.5ZM10.5 25C10.697 25 10.892 24.9612 11.074 24.8858C11.256 24.8104 11.4214 24.6999 11.5607 24.5607C11.6999 24.4214 11.8104 24.256 11.8858 24.074C11.9612 23.892 12 23.697 12 23.5C12 23.303 11.9612 23.108 11.8858 22.926C11.8104 22.744 11.6999 22.5786 11.5607 22.4393C11.4214 22.3001 11.256 22.1896 11.074 22.1142C10.892 22.0388 10.697 22 10.5 22C10.1022 22 9.72064 22.158 9.43934 22.4393C9.15804 22.7206 9 23.1022 9 23.5C9 23.8978 9.15804 24.2794 9.43934 24.5607C9.72064 24.842 10.1022 25 10.5 25V25ZM31 17.5C31 17.8978 30.842 18.2794 30.5607 18.5607C30.2794 18.842 29.8978 19 29.5 19C29.1022 19 28.7206 18.842 28.4393 18.5607C28.158 18.2794 28 17.8978 28 17.5C28 17.1022 28.158 16.7206 28.4393 16.4393C28.7206 16.158 29.1022 16 29.5 16C29.8978 16 30.2794 16.158 30.5607 16.4393C30.842 16.7206 31 17.1022 31 17.5V17.5ZM29.5 25C29.697 25 29.892 24.9612 30.074 24.8858C30.256 24.8104 30.4214 24.6999 30.5607 24.5607C30.6999 24.4214 30.8104 24.256 30.8858 24.074C30.9612 23.892 31 23.697 31 23.5C31 23.303 30.9612 23.108 30.8858 22.926C30.8104 22.744 30.6999 22.5786 30.5607 22.4393C30.4214 22.3001 30.256 22.1896 30.074 22.1142C29.892 22.0388 29.697 22 29.5 22C29.1022 22 28.7206 22.158 28.4393 22.4393C28.158 22.7206 28 23.1022 28 23.5C28 23.8978 28.158 24.2794 28.4393 24.5607C28.7206 24.842 29.1022 25 29.5 25V25Z" fill="black"/>
</svg>
