<svg width="40" height="40" viewBox="0 0 40 40" fill="none" xmlns="http://www.w3.org/2000/svg">
<path d="M6.66671 33.3333H10V16.6667C10 16.2246 10.1756 15.8007 10.4882 15.4882C10.8008 15.1756 11.2247 15 11.6667 15H31.6667V11.6667C31.6667 11.2246 31.4911 10.8007 31.1786 10.4882C30.866 10.1756 30.4421 10 30 10H24.915C24.495 6.26 21.35 3.33334 17.5 3.33334C13.65 3.33334 10.505 6.26 10.085 10H5.00004C4.55801 10 4.13409 10.1756 3.82153 10.4882C3.50897 10.8007 3.33337 11.2246 3.33337 11.6667V30C3.33337 30.8841 3.68456 31.7319 4.30968 32.357C4.93481 32.9821 5.78265 33.3333 6.66671 33.3333ZM17.5 6.66667C19.5117 6.66667 21.1967 8.1 21.5834 10H13.4167C13.8034 8.1 15.4884 6.66667 17.5 6.66667Z" fill="#4F4F4F"/>
<path d="M35 18.3333H15C14.558 18.3333 14.1341 18.5089 13.8215 18.8215C13.509 19.1341 13.3334 19.558 13.3334 20V33.3333C13.3334 34.2174 13.6846 35.0652 14.3097 35.6904C14.9348 36.3155 15.7827 36.6667 16.6667 36.6667H33.3334C34.2174 36.6667 35.0653 36.3155 35.6904 35.6904C36.3155 35.0652 36.6667 34.2174 36.6667 33.3333V20C36.6667 19.558 36.4911 19.1341 36.1786 18.8215C35.866 18.5089 35.4421 18.3333 35 18.3333ZM25 30C20.405 30 16.6667 26.2617 16.6667 21.6667H20C20 24.4233 22.2434 26.6667 25 26.6667C27.7567 26.6667 30 24.4233 30 21.6667H33.3334C33.3334 26.2617 29.595 30 25 30Z" fill="#4F4F4F"/>
</svg>
