<svg width="80" height="80" viewBox="0 0 80 80" fill="none" xmlns="http://www.w3.org/2000/svg">
<g clip-path="url(#clip0_17_125)">
<path d="M18.2128 38.4173C18.2128 41.3901 17.2905 44.0537 15.8341 45.9582C14.3783 47.862 12.4202 48.976 10.315 48.976C8.20968 48.976 6.25162 47.862 4.79578 45.9582C3.3394 44.0537 2.41711 41.3901 2.41711 38.4173C2.41711 35.4311 3.34788 32.0674 4.84959 29.4653C6.37628 26.8199 8.34293 25.1978 10.315 25.1978C12.287 25.1978 14.2536 26.8199 15.7803 29.4653C17.282 32.0674 18.2128 35.4311 18.2128 38.4173Z" stroke="black" stroke-width="1.5"/>
<path fill-rule="evenodd" clip-rule="evenodd" d="M29.4358 33.7608C29.3147 37.066 28.2971 39.9901 26.7766 42.0953C25.1533 44.3426 23.0412 45.5652 20.8575 45.5652C19.6023 45.5652 18.3707 45.1612 17.242 44.3909C17.024 44.8541 16.7815 45.2949 16.5167 45.7101C17.8315 46.5788 19.3035 47.0652 20.8575 47.0652C26.2692 47.0652 30.6859 41.1671 30.9367 33.7608H29.4358ZM30.6852 29.7695C29.6453 23.031 25.64 16.4651 20.8575 16.4651C17.2201 16.4651 14.0323 20.2632 12.2567 25.0467C12.6968 25.2816 13.1227 25.5803 13.5313 25.9331C13.9445 24.7571 14.4478 23.6404 15.0246 22.6318C16.7691 19.5811 18.9003 17.9651 20.8575 17.9651C22.8147 17.9651 24.9459 19.5811 26.6904 22.6318C27.8716 24.6975 28.7448 27.2162 29.1663 29.7695H30.6852Z" fill="black"/>
<rect x="10.1486" y="43.5728" width="0.997828" height="14.9674" rx="0.498914" fill="black" stroke="black" stroke-width="0.997828"/>
<rect x="20.7921" y="38.251" width="0.997828" height="16.2978" rx="0.498914" fill="black" stroke="black" stroke-width="0.997828"/>
<path d="M64.7782 27.6138C64.7782 31.6083 61.5401 34.8464 57.5456 34.8464C53.5511 34.8464 50.313 31.6083 50.313 27.6138C50.313 23.6193 53.5511 20.3812 57.5456 20.3812C61.5401 20.3812 64.7782 23.6193 64.7782 27.6138Z" stroke="black" stroke-width="1.5"/>
<path d="M58.376 15.6399C58.376 16.0985 58.0042 16.4703 57.5455 16.4703C57.0869 16.4703 56.7151 16.0985 56.7151 15.6399C56.7151 15.1812 57.0869 14.8094 57.5455 14.8094C58.0042 14.8094 58.376 15.1812 58.376 15.6399Z" fill="black" stroke="black"/>
<path d="M58.3758 39.5877C58.3758 40.0464 58.004 40.4182 57.5454 40.4182C57.0868 40.4182 56.715 40.0464 56.715 39.5877C56.715 39.1291 57.0868 38.7573 57.5454 38.7573C58.004 38.7573 58.3758 39.1291 58.3758 39.5877Z" fill="black" stroke="black"/>
<circle cx="45.5715" cy="27.6138" r="0.830435" transform="rotate(-90 45.5715 27.6138)" fill="black" stroke="black"/>
<path d="M69.5194 26.7834C69.978 26.7834 70.3498 27.1552 70.3498 27.6138C70.3498 28.0724 69.978 28.4442 69.5194 28.4442C69.0608 28.4442 68.689 28.0724 68.689 27.6138C68.689 27.1552 69.0608 26.7834 69.5194 26.7834Z" fill="black" stroke="black"/>
<path d="M59.0689 9.40413C59.0689 10.2454 58.3869 10.9274 57.5456 10.9274C56.7043 10.9274 56.0223 10.2454 56.0223 9.40413C56.0223 8.56283 56.7043 7.88083 57.5456 7.88083C58.3869 7.88083 59.0689 8.56283 59.0689 9.40413Z" fill="black" stroke="black"/>
<path d="M59.0689 45.8235C59.0689 46.6648 58.3869 47.3468 57.5456 47.3468C56.7043 47.3468 56.0223 46.6648 56.0223 45.8235C56.0223 44.9822 56.7043 44.3002 57.5456 44.3002C58.3869 44.3002 59.0689 44.9822 59.0689 45.8235Z" fill="black" stroke="black"/>
<path d="M39.336 26.0905C40.1773 26.0905 40.8593 26.7725 40.8593 27.6138C40.8593 28.4551 40.1773 29.1371 39.336 29.1371C38.4947 29.1371 37.8127 28.4551 37.8127 27.6138C37.8127 26.7725 38.4947 26.0905 39.336 26.0905Z" fill="black" stroke="black"/>
<path d="M75.7555 26.0905C76.5968 26.0905 77.2788 26.7725 77.2788 27.6138C77.2788 28.4551 76.5968 29.1371 75.7555 29.1371C74.9142 29.1371 74.2322 28.4551 74.2322 27.6138C74.2322 26.7725 74.9142 26.0905 75.7555 26.0905Z" fill="black" stroke="black"/>
<ellipse cx="44.6694" cy="14.7377" rx="2.0233" ry="2.0233" transform="rotate(-45 44.6694 14.7377)" fill="black" stroke="black"/>
<circle cx="70.4218" cy="40.4901" r="1.5233" transform="rotate(-45 70.4218 40.4901)" fill="black" stroke="black"/>
<ellipse cx="44.6696" cy="40.49" rx="2.0233" ry="2.0233" transform="rotate(-135 44.6696 40.49)" fill="black" stroke="black"/>
<circle r="1.5233" transform="matrix(-0.707107 -0.707106 0.707107 -0.707106 70.4221 14.7376)" fill="black" stroke="black"/>
<circle cx="49.2679" cy="19.1469" r="0.830436" transform="rotate(-45 49.2679 19.1469)" fill="black" stroke="black"/>
<circle r="0.830438" transform="matrix(0.707107 -0.707106 0.707107 0.707106 66.2013 36.0806)" fill="black" stroke="black"/>
<ellipse cx="49.2678" cy="36.0806" rx="1.33044" ry="1.33044" transform="rotate(-135 49.2678 36.0806)" fill="black" stroke="black"/>
<circle cx="66.2015" cy="19.1469" r="0.830436" transform="rotate(-135 66.2015 19.1469)" fill="black" stroke="black"/>
<path d="M44.9063 60.8757C26.8124 49.1679 10.315 57.7714 4.328 63.5366V76.841H70.8498V59.5453C62.8672 53.7174 48.8976 57.7087 44.9063 60.8757Z" stroke="black" stroke-width="1.5"/>
<path d="M4.328 68.8584C10.7584 63.7584 26.9454 55.1809 40.2498 63.6957M4.328 74.1801C7.43235 71.9627 15.5037 67.2619 22.9541 66.1975" stroke="black" stroke-width="1.5" stroke-linecap="round"/>
<path d="M25.6151 65.6913C27.389 65.4696 32.5334 65.4252 36.2586 67.0217" stroke="black" stroke-width="1.5" stroke-linecap="round"/>
<path d="M26.9453 77C30.7149 71.9 44.241 58.3739 54.8845 57.0435" stroke="black" stroke-width="1.5"/>
<path d="M10.3151 76.3348C12.3107 74.3391 19.7612 70.5879 30.9368 72.1844" stroke="black" stroke-width="1.5" stroke-linecap="round"/>
<path d="M34.2628 76.841C38.2541 72.8497 42.9107 68.3522 48.8976 65.5323M52.2237 63.6956C55.5498 62.1435 62.7342 60.2105 70.1846 62.8714M42.2454 76.841C45.5715 72.6279 56.3481 64.3349 70.1846 67.5279M50.2281 76.841C50.2281 76.841 55.5498 70.854 70.8498 72.1844" stroke="black" stroke-width="1.5" stroke-linecap="round" stroke-linejoin="round"/>
</g>
<defs>
<clipPath id="clip0_17_125">
<rect width="80" height="80" fill="white"/>
</clipPath>
</defs>
</svg>
