<svg width="80" height="80" viewBox="0 0 80 80" fill="none" xmlns="http://www.w3.org/2000/svg">
<mask id="mask0_17_223" style="mask-type:alpha" maskUnits="userSpaceOnUse" x="5" y="5" width="70" height="70">
<path d="M12 5H68L75 75H5L12 5Z" fill="#C4C4C4"/>
</mask>
<g mask="url(#mask0_17_223)">
<path d="M-17.9429 56.25L-9.36789 31.75H19.1291L15.4541 56.25H-17.9429Z" stroke="black" stroke-width="1.5"/>
<path d="M97.9429 56.25L89.3679 31.75H60.8709L64.5459 56.25H97.9429Z" stroke="black" stroke-width="1.5"/>
<path fill-rule="evenodd" clip-rule="evenodd" d="M32.121 31H25.1084L22.6655 55.9321L22.5186 57.4321H24.0257H55.9743H57.4815L57.3345 55.9321L54.8917 31H48.5428C48.292 31.4928 48.0205 31.9948 47.7339 32.5H53.5315L55.8274 55.9321H24.1727L26.4686 32.5H32.8922C32.6187 31.9943 32.3599 31.4922 32.121 31Z" fill="black"/>
<path fill-rule="evenodd" clip-rule="evenodd" d="M50.5 18.5117C50.5 19.782 49.9557 21.7116 48.9743 24.0474C48.0141 26.3325 46.7116 28.8332 45.3608 31.1793C44.0118 33.5223 42.6303 35.6839 41.5245 37.2857C41.0761 37.9351 40.6791 38.4838 40.3525 38.9108C40.0974 38.5962 39.7984 38.201 39.4626 37.7298C38.3717 36.1992 36.9972 34.0168 35.6482 31.6064C34.2994 29.1961 32.9952 26.5922 32.0329 24.219C31.049 21.7924 30.5 19.79 30.5 18.5117C30.5 12.9809 34.9786 8.5 40.5 8.5C44.0504 8.5 47.1696 10.3528 48.9441 13.1461L50.3473 12.5627C48.3329 9.22862 44.6765 7 40.5 7C34.1487 7 29 12.1539 29 18.5117C29 24.8694 39.4048 41.535 40.5 40.9868C41.5952 40.4386 52 24.8694 52 18.5117C52 17.4013 51.8429 16.3276 51.5499 15.3117L50.1542 15.8919C50.3797 16.7269 50.5 17.6052 50.5 18.5117Z" fill="black"/>
<circle cx="40.5" cy="18.5" r="3.75" stroke="black" stroke-width="1.5"/>
<line y1="74.25" x2="102" y2="74.25" stroke="black" stroke-width="1.5"/>
<line y1="65.25" x2="102" y2="65.25" stroke="black" stroke-width="1.5" stroke-dasharray="3 3"/>
</g>
</svg>
