<svg width="40" height="40" viewBox="0 0 40 40" fill="none" xmlns="http://www.w3.org/2000/svg">
<g clip-path="url(#clip0_25_11)">
<path d="M34.4816 17.3154L23.8264 6.94155L23.1122 6.24585C22.9495 6.08838 22.7294 6 22.5001 6C22.2707 6 22.0506 6.08838 21.8879 6.24585L10.5185 17.3154C10.3518 17.4772 10.22 17.6699 10.131 17.8821C10.0419 18.0943 9.99743 18.3217 10.0001 18.551C10.0111 19.4965 10.8191 20.2513 11.7898 20.2513H12.9617V29H32.0384V20.2513H33.2352C33.7067 20.2513 34.1507 20.0713 34.4843 19.7463C34.6486 19.5868 34.7788 19.3971 34.8673 19.1882C34.9558 18.9794 35.0009 18.7555 35 18.5295C35 18.0728 34.8152 17.6404 34.4816 17.3154V17.3154ZM24.0443 27.066H20.9558V21.5863H24.0443V27.066ZM30.053 18.3173V27.066H25.8091V20.9416C25.8091 20.348 25.3155 19.8672 24.7061 19.8672H20.294C19.6846 19.8672 19.191 20.348 19.191 20.9416V27.066H14.9471V18.3173H12.2999L22.5028 8.38669L23.1398 9.00718L32.703 18.3173H30.053Z" fill="black"/>
<path d="M9 49C12.6667 43.6667 24 32.5 40 30.5" stroke="black"/>
<path d="M19 39C15.3333 33.6667 4 22.5 -12 20.5" stroke="black"/>
<path d="M13 50.5C16.6667 45.1667 28 34 44 32" stroke="black"/>
<path d="M15 40.5C11.3333 35.1667 0 24 -16 22" stroke="black"/>
<path d="M15 53.5C18.6667 48.1667 30 37 46 35" stroke="black"/>
<path d="M13 43.5C9.33333 38.1667 -2 27 -18 25" stroke="black"/>
<path d="M17 56.5C20.6667 51.1667 32 40 48 38" stroke="black"/>
<path d="M11 46.5C7.33333 41.1667 -4 30 -20 28" stroke="black"/>
</g>
<defs>
<clipPath id="clip0_25_11">
<rect width="40" height="40" fill="white"/>
</clipPath>
</defs>
</svg>
