<svg width="80" height="80" viewBox="0 0 80 80" fill="none" xmlns="http://www.w3.org/2000/svg">
<mask id="path-1-inside-1_17_250" fill="white">
<path fill-rule="evenodd" clip-rule="evenodd" d="M4.43454 43.927C3.57716 44.6234 3.57716 45.7525 4.43454 46.4489L6.74813 48.3281L31.2578 28.4203L55.7675 48.3281L58.0811 46.4489C58.9385 45.7525 58.9385 44.6234 58.0811 43.927L32.8102 23.401C31.9529 22.7046 30.5628 22.7046 29.7054 23.401L4.43454 43.927Z"/>
</mask>
<path d="M4.43454 46.4489L5.38024 45.2846H5.38024L4.43454 46.4489ZM4.43454 43.927L5.38025 45.0913H5.38025L4.43454 43.927ZM6.74813 48.3281L5.80242 49.4924L6.74813 50.2605L7.69384 49.4924L6.74813 48.3281ZM31.2578 28.4203L32.2035 27.256L31.2578 26.4879L30.3121 27.256L31.2578 28.4203ZM55.7675 48.3281L54.8218 49.4924L55.7675 50.2605L56.7132 49.4924L55.7675 48.3281ZM58.0811 46.4489L59.0268 47.6132L58.0811 46.4489ZM58.0811 43.927L59.0268 42.7627L58.0811 43.927ZM32.8102 23.401L33.7559 22.2367V22.2367L32.8102 23.401ZM29.7054 23.401L30.6511 24.5653V24.5653L29.7054 23.401ZM5.38024 45.2846C5.32088 45.2363 5.30003 45.2004 5.2943 45.1889C5.28873 45.1778 5.2915 45.1785 5.2915 45.1879C5.2915 45.1974 5.28873 45.1981 5.2943 45.1869C5.30003 45.1755 5.32088 45.1395 5.38025 45.0913L3.48884 42.7627C2.74232 43.369 2.29151 44.2391 2.2915 45.1879C2.2915 46.1368 2.74231 47.0068 3.48883 47.6132L5.38024 45.2846ZM7.69384 47.1637L5.38024 45.2846L3.48883 47.6132L5.80242 49.4924L7.69384 47.1637ZM7.69384 49.4924L32.2035 29.5847L30.3121 27.256L5.80242 47.1637L7.69384 49.4924ZM30.3121 29.5847L54.8218 49.4924L56.7132 47.1637L32.2035 27.256L30.3121 29.5847ZM57.1354 45.2846L54.8218 47.1637L56.7132 49.4924L59.0268 47.6132L57.1354 45.2846ZM57.1354 45.0913C57.1948 45.1395 57.2156 45.1755 57.2213 45.1869C57.2269 45.1981 57.2241 45.1974 57.2241 45.1879C57.2241 45.1785 57.2269 45.1778 57.2213 45.1889C57.2156 45.2004 57.1947 45.2363 57.1354 45.2846L59.0268 47.6132C59.7733 47.0068 60.2241 46.1368 60.2241 45.1879C60.2241 44.2391 59.7733 43.369 59.0268 42.7627L57.1354 45.0913ZM31.8645 24.5653L57.1354 45.0913L59.0268 42.7627L33.7559 22.2367L31.8645 24.5653ZM30.6511 24.5653C30.9574 24.3165 31.5582 24.3165 31.8645 24.5653L33.7559 22.2367C32.3475 21.0927 30.1681 21.0927 28.7597 22.2367L30.6511 24.5653ZM5.38025 45.0913L30.6511 24.5653L28.7597 22.2367L3.48884 42.7627L5.38025 45.0913Z" fill="black" mask="url(#path-1-inside-1_17_250)"/>
<rect x="4.71875" y="72.5479" width="53.5314" height="4.6146" stroke="black" stroke-width="1.5"/>
<rect x="16.9479" y="49.3124" width="11.9521" height="22.9584" stroke="black" stroke-width="1.5"/>
<rect x="35.2919" y="49.3124" width="11.9521" height="9.50628" stroke="black" stroke-width="1.5"/>
<rect x="10.0835" y="43.6707" width="1.5" height="29.3501" fill="black"/>
<rect x="40.6565" y="48.5624" width="1.22292" height="10.7834" fill="black"/>
<rect x="34.7649" y="54.677" width="1.22292" height="12.2292" transform="rotate(-90 34.7649 54.677)" fill="black"/>
<path d="M43.1023 32.053V28.9957H47.994V36.3332" stroke="black" stroke-width="1.5" stroke-linecap="round" stroke-linejoin="round"/>
<path fill-rule="evenodd" clip-rule="evenodd" d="M53.1624 44.8937H51.6624V51H53.1624V44.8937ZM53.1624 53H51.6624V71.7979H53.1624V53Z" fill="black"/>
<g clip-path="url(#clip0_17_250)">
<path d="M64.8125 10.875C63.4449 10.8748 62.1121 11.3058 61.0035 12.1066C59.895 12.9074 59.067 14.0373 58.6375 15.3356C58.6072 15.4406 58.5561 15.5384 58.4871 15.6232C58.4181 15.708 58.3328 15.778 58.2361 15.829C58.1395 15.88 58.0335 15.911 57.9246 15.9202C57.8157 15.9293 57.7061 15.9163 57.6023 15.8821C57.4985 15.8479 57.4027 15.7931 57.3206 15.7209C57.2385 15.6488 57.1718 15.5609 57.1245 15.4624C57.0771 15.3639 57.0502 15.2568 57.0452 15.1476C57.0402 15.0385 57.0572 14.9294 57.0954 14.827C57.6594 13.1237 58.7712 11.6549 60.2574 10.6495C61.7436 9.64423 63.5207 9.15893 65.3116 9.26931C67.1025 9.37968 68.8065 10.0795 70.158 11.2597C71.5095 12.4399 72.4325 14.0342 72.7831 15.7939C74.0088 15.9594 75.1257 16.5847 75.9077 17.5429C76.6896 18.5012 77.0781 19.7208 76.9944 20.9548C76.9107 22.1888 76.3612 23.3448 75.457 24.1887C74.5529 25.0327 73.3618 25.5014 72.125 25.5H58.3125C58.097 25.5 57.8903 25.4144 57.738 25.262C57.5856 25.1096 57.5 24.903 57.5 24.6875C57.5 24.472 57.5856 24.2653 57.738 24.113C57.8903 23.9606 58.097 23.875 58.3125 23.875H72.125C72.987 23.8752 73.8137 23.533 74.4233 22.9237C75.033 22.3143 75.3756 21.4878 75.3758 20.6258C75.376 19.7639 75.0338 18.9371 74.4245 18.3275C73.8151 17.7178 72.9886 17.3752 72.1266 17.375H72.0844C71.8835 17.3762 71.6893 17.303 71.5393 17.1694C71.3892 17.0359 71.294 16.8515 71.2719 16.6519C71.094 15.0631 70.3369 13.5957 69.1453 12.53C67.9537 11.4643 66.4111 10.8751 64.8125 10.875V10.875ZM51 18.1875C51 17.972 51.0856 17.7653 51.238 17.613C51.3903 17.4606 51.597 17.375 51.8125 17.375H59.9375C60.153 17.375 60.3597 17.4606 60.512 17.613C60.6644 17.7653 60.75 17.972 60.75 18.1875C60.75 18.403 60.6644 18.6096 60.512 18.762C60.3597 18.9144 60.153 19 59.9375 19H51.8125C51.597 19 51.3903 18.9144 51.238 18.762C51.0856 18.6096 51 18.403 51 18.1875ZM54.25 21.4375C54.25 21.222 54.3356 21.0153 54.488 20.863C54.6403 20.7106 54.847 20.625 55.0625 20.625H69.6875C69.903 20.625 70.1097 20.7106 70.262 20.863C70.4144 21.0153 70.5 21.222 70.5 21.4375C70.5 21.653 70.4144 21.8596 70.262 22.012C70.1097 22.1644 69.903 22.25 69.6875 22.25H55.0625C54.847 22.25 54.6403 22.1644 54.488 22.012C54.3356 21.8596 54.25 21.653 54.25 21.4375ZM51 27.9375C51 27.722 51.0856 27.5153 51.238 27.363C51.3903 27.2106 51.597 27.125 51.8125 27.125H66.4375C66.653 27.125 66.8597 27.2106 67.012 27.363C67.1644 27.5153 67.25 27.722 67.25 27.9375C67.25 28.153 67.1644 28.3596 67.012 28.512C66.8597 28.6644 66.653 28.75 66.4375 28.75H51.8125C51.597 28.75 51.3903 28.6644 51.238 28.512C51.0856 28.3596 51 28.153 51 27.9375Z" fill="black"/>
</g>
<path d="M73.7718 56.5368C73.7718 59.1893 72.9488 61.563 71.6529 63.2575C70.3576 64.9514 68.6212 65.9357 66.7609 65.9357C64.9005 65.9357 63.1642 64.9514 61.8689 63.2575C60.573 61.563 59.75 59.1893 59.75 56.5368C59.75 53.8709 60.5815 50.8654 61.9227 48.5414C63.2889 46.1741 65.0338 44.75 66.7609 44.75C68.488 44.75 70.2329 46.1741 71.5991 48.5414C72.9403 50.8654 73.7718 53.8709 73.7718 56.5368Z" stroke="black" stroke-width="1.5"/>
<rect x="66.6116" y="61.1635" width="0.895487" height="13.4323" rx="0.447743" fill="black" stroke="black" stroke-width="0.895487"/>
<rect x="60.3433" y="75.3274" width="0.895487" height="13.4323" rx="0.447743" transform="rotate(-90 60.3433 75.3274)" fill="black" stroke="black" stroke-width="0.895487"/>
<defs>
<clipPath id="clip0_17_250">
<rect width="26" height="26" fill="white" transform="translate(51 6)"/>
</clipPath>
</defs>
</svg>
