<svg width="80" height="80" viewBox="0 0 80 80" fill="none" xmlns="http://www.w3.org/2000/svg">
<g clip-path="url(#clip0_22_2)">
<line x1="19" y1="59.25" x2="63" y2="59.25" stroke="black" stroke-width="1.5"/>
<line x1="19" y1="72.25" x2="63" y2="72.25" stroke="black" stroke-width="1.5"/>
<line x1="41.25" y1="88" x2="41.25" y2="44" stroke="black" stroke-width="1.5"/>
<path fill-rule="evenodd" clip-rule="evenodd" d="M41.6986 89.4465C42.4405 89.8762 43.2093 90.2227 44 90.4784C42.9433 90.8202 41.8475 91 40.7241 91C32.0399 91 25 80.2548 25 67C25 53.7452 32.0399 43 40.7241 43C41.8475 43 42.9433 43.1798 44 43.5216C43.2093 43.7773 42.4405 44.1238 41.6986 44.5535C41.3753 44.5179 41.0503 44.5 40.7241 44.5C37.0519 44.5 33.5324 46.7728 30.8602 50.8515C28.1965 54.9171 26.5 60.6222 26.5 67C26.5 73.3778 28.1965 79.0829 30.8602 83.1485C33.5324 87.2272 37.0519 89.5 40.7241 89.5C41.0503 89.5 41.3753 89.4821 41.6986 89.4465Z" fill="black"/>
<path d="M55.6434 30.3125C56.7505 28.5763 57.337 26.5592 57.3334 24.5C57.3334 18.5167 52.4834 13.6667 46.5001 13.6667C44.3609 13.6667 42.3667 14.2867 40.6876 15.3558C39.5701 15.4185 38.464 15.6138 37.3926 15.9375C38.207 15.0717 39.1402 14.3259 40.1642 13.7225C42.0717 12.5985 44.2445 12.0039 46.4584 12H46.5001C53.4034 12 59.0001 17.5967 59.0001 24.5C59.0001 24.6125 58.9984 24.7242 58.9959 24.8358L58.9942 24.8758C58.9346 26.9756 58.3441 29.0261 57.2776 30.8358C56.6742 31.8599 55.9284 32.7931 55.0626 33.6075C55.3801 32.555 55.5792 31.4517 55.6434 30.3125V30.3125Z" fill="black"/>
<path fill-rule="evenodd" clip-rule="evenodd" d="M45.4766 25.8892C45.2467 25.2392 44.821 24.6764 44.2581 24.2784C43.6952 23.8804 43.0227 23.6667 42.3333 23.6667V22.8333H40.6666V23.6667C39.7825 23.6667 38.9347 24.0179 38.3096 24.643C37.6844 25.2681 37.3333 26.1159 37.3333 27C37.3333 27.8841 37.6844 28.7319 38.3096 29.357C38.9347 29.9821 39.7825 30.3333 40.6666 30.3333V33.6667C39.9416 33.6667 39.3241 33.2042 39.0941 32.5558C39.06 32.4498 39.0049 32.3516 38.9322 32.2672C38.8595 32.1828 38.7706 32.1138 38.6707 32.0643C38.5709 32.0149 38.4621 31.9859 38.3509 31.9792C38.2397 31.9725 38.1282 31.9882 38.0232 32.0253C37.9181 32.0624 37.8216 32.1202 37.7392 32.1953C37.6569 32.2704 37.5905 32.3612 37.5439 32.4624C37.4973 32.5637 37.4714 32.6732 37.4679 32.7845C37.4643 32.8959 37.4832 33.0069 37.5233 33.1108C37.7531 33.7608 38.1788 34.3235 38.7418 34.7216C39.3047 35.1196 39.9772 35.3333 40.6666 35.3333V36.1667H42.3333V35.3333C43.2173 35.3333 44.0652 34.9821 44.6903 34.357C45.3154 33.7319 45.6666 32.8841 45.6666 32C45.6666 31.1159 45.3154 30.2681 44.6903 29.643C44.0652 29.0179 43.2173 28.6667 42.3333 28.6667V25.3333C43.0583 25.3333 43.6758 25.7958 43.9058 26.4442C43.9399 26.5502 43.9949 26.6484 44.0676 26.7328C44.1404 26.8172 44.2293 26.8862 44.3291 26.9357C44.429 26.9851 44.5377 27.0141 44.6489 27.0208C44.7602 27.0275 44.8716 27.0118 44.9767 26.9747C45.0817 26.9376 45.1783 26.8798 45.2606 26.8047C45.3429 26.7296 45.4094 26.6388 45.456 26.5375C45.5026 26.4363 45.5284 26.3268 45.532 26.2154C45.5355 26.1041 45.5167 25.9931 45.4766 25.8892V25.8892ZM40.6666 25.3333C40.2246 25.3333 39.8006 25.5089 39.4881 25.8215C39.1755 26.134 38.9999 26.558 38.9999 27C38.9999 27.442 39.1755 27.8659 39.4881 28.1785C39.8006 28.4911 40.2246 28.6667 40.6666 28.6667V25.3333ZM42.3333 33.6667C42.7753 33.6667 43.1992 33.4911 43.5118 33.1785C43.8243 32.8659 43.9999 32.442 43.9999 32C43.9999 31.558 43.8243 31.134 43.5118 30.8215C43.1992 30.5089 42.7753 30.3333 42.3333 30.3333V33.6667Z" fill="black"/>
<path fill-rule="evenodd" clip-rule="evenodd" d="M54 29.5C54 36.4033 48.4033 42 41.5 42C34.5967 42 29 36.4033 29 29.5C29 22.5967 34.5967 17 41.5 17C48.4033 17 54 22.5967 54 29.5ZM52.3333 29.5C52.3333 35.4833 47.4833 40.3333 41.5 40.3333C35.5167 40.3333 30.6667 35.4833 30.6667 29.5C30.6667 23.5167 35.5167 18.6667 41.5 18.6667C47.4833 18.6667 52.3333 23.5167 52.3333 29.5Z" fill="black"/>
<path fill-rule="evenodd" clip-rule="evenodd" d="M39.3014 89.4465C38.5595 89.8762 37.7907 90.2227 37 90.4784C38.0567 90.8202 39.1525 91 40.2759 91C48.9601 91 56 80.2548 56 67C56 53.7452 48.9601 43 40.2759 43C39.1525 43 38.0567 43.1798 37 43.5216C37.7907 43.7773 38.5595 44.1238 39.3014 44.5535C39.6247 44.5179 39.9497 44.5 40.2759 44.5C43.9481 44.5 47.4676 46.7728 50.1398 50.8515C52.8035 54.9171 54.5 60.6222 54.5 67C54.5 73.3778 52.8035 79.0829 50.1398 83.1485C47.4676 87.2272 43.9481 89.5 40.2759 89.5C39.9497 89.5 39.6247 89.4821 39.3014 89.4465Z" fill="black"/>
<path fill-rule="evenodd" clip-rule="evenodd" d="M63.5 67C63.5 79.4264 53.4264 89.5 41 89.5C28.5736 89.5 18.5 79.4264 18.5 67C18.5 54.5736 28.5736 44.5 41 44.5C47.0345 44.5 52.5141 46.8756 56.5547 50.7426L57.7261 49.7884C53.4036 45.5871 47.5039 43 41 43C27.7452 43 17 53.7452 17 67C17 80.2548 27.7452 91 41 91C54.2548 91 65 80.2548 65 67C65 61.33 63.0338 56.1192 59.746 52.0123L58.583 52.9598C61.6601 56.8084 63.5 61.6893 63.5 67Z" fill="black"/>
</g>
<defs>
<clipPath id="clip0_22_2">
<rect width="80" height="80" fill="white"/>
</clipPath>
</defs>
</svg>
