<svg width="80" height="80" viewBox="0 0 80 80" fill="none" xmlns="http://www.w3.org/2000/svg">
<g clip-path="url(#clip0_23_58)">
<path d="M40.4999 53.9L22.6333 36.0333M40.4999 74V38.2667V74ZM40.4999 40.5V53.9V40.5ZM40.4999 40.5C40.4999 35.7615 38.6176 31.217 35.2669 27.8664C31.9163 24.5157 27.3718 22.6333 22.6333 22.6333H9.23328V36.0333C9.23328 40.7719 11.1157 45.3163 14.4663 48.667C17.817 52.0176 22.3614 53.9 27.0999 53.9H40.4999V40.5ZM40.4999 40.5H53.8999C58.6385 40.5 63.1829 38.6176 66.5336 35.267C69.8842 31.9163 71.7666 27.3719 71.7666 22.6333V9.23334H58.3666C53.6281 9.23334 49.0836 11.1157 45.733 14.4664C42.3823 17.817 40.4999 22.3615 40.4999 27.1V40.5ZM40.4999 40.5L58.3666 22.6333L40.4999 40.5Z" stroke="black" stroke-width="1.5"/>
<rect x="45" y="69" width="18" height="2" fill="black"/>
<rect x="45" y="57" width="12" height="2" fill="black"/>
<rect x="18" y="69" width="13" height="2" fill="black"/>
</g>
<defs>
<clipPath id="clip0_23_58">
<rect width="67" height="67" fill="white" transform="translate(7 6)"/>
</clipPath>
</defs>
</svg>
