<svg width="54" height="54" viewBox="0 0 54 54" fill="none" xmlns="http://www.w3.org/2000/svg">
<path d="M22.95 8.10001C25.7145 8.09983 28.4242 8.87135 30.774 10.3277C33.1238 11.7841 35.0204 13.8674 36.2503 16.3433C37.4802 18.8191 37.9946 21.5891 37.7356 24.3415C37.4765 27.0938 36.4544 29.7192 34.7841 31.9221L45.981 43.119C46.3433 43.4803 46.5554 43.9654 46.5746 44.4768C46.5939 44.9881 46.4188 45.4878 46.0846 45.8753C45.7505 46.2628 45.282 46.5094 44.7734 46.5656C44.2648 46.6218 43.7538 46.4834 43.3431 46.1781L43.1163 45.981L31.9194 34.7841C31.141 35.3751 30.3063 35.8879 29.4273 36.315C29.1677 34.969 28.7215 33.6659 28.1016 32.4432C29.837 31.501 31.2809 30.1009 32.2762 28.3954C33.2715 26.6899 33.7801 24.7441 33.7468 22.7696C33.7135 20.7952 33.1394 18.8677 32.0871 17.1967C31.0348 15.5257 29.5445 14.1753 27.7783 13.2921C26.012 12.409 24.0374 12.027 22.0693 12.1878C20.1011 12.3485 18.2147 13.0458 16.6151 14.2038C15.0156 15.3618 13.7641 16.9362 12.9969 18.7557C12.2296 20.5753 11.9759 22.5704 12.2634 24.5241C10.9133 24.7613 9.60286 25.1857 8.36999 25.785C7.95177 23.6346 8.0145 21.4183 8.5537 19.295C9.0929 17.1717 10.0952 15.1939 11.4888 13.5036C12.8823 11.8133 14.6326 10.4522 16.6141 9.51801C18.5956 8.58379 20.7593 8.09955 22.95 8.10001ZM8.27549 30.8934C8.46994 31.5863 8.52392 32.3111 8.43427 33.0252C8.34461 33.7392 8.11313 34.4282 7.75342 35.0515C7.39372 35.6748 6.91304 36.2199 6.33965 36.6549C5.76626 37.0898 5.11172 37.4057 4.41449 37.584L3.16709 37.9026C3.07713 38.8153 3.08618 39.7351 3.19409 40.6458L4.13909 40.8699C4.85494 41.0392 5.52865 41.3529 6.11891 41.7919C6.70916 42.2309 7.2035 42.7858 7.57161 43.4227C7.93972 44.0595 8.17383 44.7649 8.25958 45.4954C8.34533 46.226 8.28092 46.9664 8.07029 47.6712L7.72739 48.8106C8.42399 49.3614 9.17729 49.8312 9.98189 50.2092L10.8594 49.2804C11.3646 48.7455 11.9737 48.3195 12.6495 48.0284C13.3252 47.7374 14.0533 47.5876 14.7891 47.5881C15.5248 47.5886 16.2527 47.7394 16.928 48.0314C17.6034 48.3233 18.212 48.7502 18.7164 49.2858L19.6263 50.2524C20.4147 49.8879 21.1599 49.437 21.8457 48.9078L21.4245 47.4066C21.2296 46.7135 21.1753 45.9885 21.2648 45.2741C21.3542 44.5597 21.5856 43.8705 21.9454 43.2468C22.3051 42.6232 22.7859 42.0778 23.3595 41.6427C23.9332 41.2076 24.588 40.8916 25.2855 40.7133L26.5275 40.3974C26.6176 39.4838 26.6086 38.5631 26.5005 37.6515L25.5609 37.4301C24.8447 37.2609 24.1707 36.947 23.5803 36.5079C22.9898 36.0687 22.4953 35.5135 22.1272 34.8764C21.759 34.2392 21.525 33.5335 21.4394 32.8026C21.3539 32.0717 21.4186 31.3311 21.6297 30.6261L21.9699 29.4894C21.2742 28.938 20.5178 28.4679 19.7154 28.0881L18.8379 29.0169C18.3329 29.552 17.7239 29.9782 17.0483 30.2695C16.3726 30.5607 15.6446 30.7108 14.9088 30.7106C14.1731 30.7103 13.4451 30.5597 12.7697 30.268C12.0942 29.9763 11.4855 29.5496 10.9809 29.0142L10.071 28.0476C9.28449 28.4111 8.541 28.8612 7.85429 29.3895L8.27549 30.8934ZM14.8473 41.85C14.1312 41.85 13.4445 41.5655 12.9381 41.0592C12.4318 40.5528 12.1473 39.8661 12.1473 39.15C12.1473 38.4339 12.4318 37.7472 12.9381 37.2408C13.4445 36.7345 14.1312 36.45 14.8473 36.45C15.5634 36.45 16.2501 36.7345 16.7565 37.2408C17.2628 37.7472 17.5473 38.4339 17.5473 39.15C17.5473 39.8661 17.2628 40.5528 16.7565 41.0592C16.2501 41.5655 15.5634 41.85 14.8473 41.85Z" fill="#4F4F4F"/>
</svg>
